<?xml version="1.0" standalone="no"?><svg xmlns="http://www.w3.org/2000/svg" width="1920" hight="500" viewBox="0 0 1440 320"><path fill="#fff" fill-opacity="1" d="M0,32L13.3,64C26.7,96,53,160,80,197.3C106.7,235,133,245,160,245.3C186.7,245,213,235,240,245.3C266.7,256,293,288,320,288C346.7,288,373,256,400,245.3C426.7,235,453,245,480,245.3C506.7,245,533,235,560,229.3C586.7,224,613,224,640,229.3C666.7,235,693,245,720,250.7C746.7,256,773,256,800,234.7C826.7,213,853,171,880,144C906.7,117,933,107,960,112C986.7,117,1013,139,1040,160C1066.7,181,1093,203,1120,197.3C1146.7,192,1173,160,1200,170.7C1226.7,181,1253,235,1280,261.3C1306.7,288,1333,288,1360,240C1386.7,192,1413,96,1427,48L1440,0L1440,320L1426.7,320C1413.3,320,1387,320,1360,320C1333.3,320,1307,320,1280,320C1253.3,320,1227,320,1200,320C1173.3,320,1147,320,1120,320C1093.3,320,1067,320,1040,320C1013.3,320,987,320,960,320C933.3,320,907,320,880,320C853.3,320,827,320,800,320C773.3,320,747,320,720,320C693.3,320,667,320,640,320C613.3,320,587,320,560,320C533.3,320,507,320,480,320C453.3,320,427,320,400,320C373.3,320,347,320,320,320C293.3,320,267,320,240,320C213.3,320,187,320,160,320C133.3,320,107,320,80,320C53.3,320,27,320,13,320L0,320Z"></path></svg>